<svg width="500" height="500">
  <circle cx="250" cy="250" r="200" stroke="#333" stroke-width="5" fill="#fff" />
  <g id="heart" transform="translate(200,200)">
    <path d="M 50 -50 C 0 -100, 100 -100, 50 50 C 0 100, -100 100, -50 50" fill="#f00" />
    <path d="M 50 -50 C 0 -100, 100 -100, 50 50 C 0 100, -100 100, -50 50" fill="#f00" transform="rotate(180 50 50)" />
  </g>
  <g id="rings" transform="translate(250,250)">
    <circle cx="0" cy="-50" r="20" stroke="#333" stroke-width="5" fill="#fff" />
    <circle cx="0" cy="50" r="20" stroke="#333" stroke-width="5" fill="#fff" />
  </g>
  <g id="tabla" transform="translate(100,100)">
    <rect x="0" y="0" width="100" height="50" stroke="#333" stroke-width="5" fill="#fff" />
    <circle cx="50" cy="25" r="20" stroke="#333" stroke-width="5" fill="#fff" />
  </g>
  <g id="violin" transform="translate(400,100)">
    <path d="M 0 0 L 100 0 L 100 50 L 0 50 Z" stroke="#333" stroke-width="5" fill="#fff" />
    <path d="M 50 0 L 50 -50" stroke="#333" stroke-width="5" />
    <circle cx="50" cy="-50" r="10" stroke="#333" stroke-width="5" fill="#fff" />
  </g>
  <animateTransform attributeName="transform" type="rotate" from="0 250 250" to="360 250 250" dur="5s" repeatCount="indefinite" />
  <animateTransform attributeName="transform" type="rotate" from="0 200 200" to="360 200 200" dur="10s" repeatCount="indefinite" />
  <animateTransform attributeName="transform" type="translate" from="0 0" to="500 0" dur="5s" repeatCount="indefinite" />
</svg>


